<?xml version="1.0" encoding="utf-8"?>
<!-- Generator: Adobe Illustrator 27.8.1, SVG Export Plug-In . SVG Version: 6.00 Build 0)  -->
<svg version="1.1" id="Layer_2" xmlns="http://www.w3.org/2000/svg" xmlns:xlink="http://www.w3.org/1999/xlink" x="0px" y="0px"
	 viewBox="0 0 180.4 35.2" style="enable-background:new 0 0 180.4 35.2;" xml:space="preserve">
<style type="text/css">
	.st0{fill:#FFFFFF;}
	.st1{fill:#7EB842;}
	.st2{fill:#2090CF;}
	.st3{fill:#DF1B4E;}
</style>
<g id="Layer_1-2">
	<path class="st0" d="M11.2,32.9c-0.9,0-1.6-0.5-2-1.4l-9-18.9c-0.2-0.5-0.2-0.9-0.1-1.4c0.2-0.5,0.5-0.8,1.1-1.1
		c0.5-0.2,1-0.3,1.5-0.1c0.5,0.2,0.9,0.5,1.1,1l8.4,18h-2l8.3-18c0.2-0.5,0.6-0.8,1.2-1s1-0.1,1.6,0.1c0.5,0.2,0.8,0.6,1,1.1
		s0.1,1-0.1,1.4l-8.9,18.9C12.7,32.5,12.1,33,11.2,32.9L11.2,32.9z"/>
	<path class="st0" d="M34.3,33.2c-2.3,0-4.4-0.5-6.2-1.5s-3.2-2.4-4.3-4.1c-1-1.8-1.5-3.8-1.5-6.1s0.5-4.3,1.5-6.1s2.3-3.1,4-4.1
		c1.7-1,3.7-1.5,5.9-1.5s4.1,0.5,5.7,1.5c1.6,1,2.8,2.3,3.6,4s1.2,3.7,1.2,5.9c0,0.5-0.2,1-0.5,1.3s-0.8,0.5-1.4,0.5h-17v-3.4h16.9
		l-1.7,1.2c0-1.4-0.3-2.7-0.8-3.8c-0.5-1.1-1.3-2-2.3-2.6c-1-0.6-2.2-1-3.6-1c-1.6,0-3,0.4-4.1,1.1c-1.1,0.7-2,1.7-2.6,2.9
		s-0.9,2.6-0.9,4.2s0.4,2.9,1.1,4.1c0.7,1.2,1.7,2.2,2.9,2.9c1.2,0.7,2.7,1.1,4.3,1.1c0.9,0,1.8-0.2,2.7-0.5
		c0.9-0.3,1.7-0.7,2.2-1.1c0.4-0.3,0.9-0.5,1.4-0.5c0.5,0,0.9,0.1,1.3,0.4c0.5,0.4,0.7,0.9,0.8,1.4c0,0.5-0.2,0.9-0.7,1.3
		c-1,0.8-2.2,1.4-3.6,1.9C37,32.9,35.6,33.1,34.3,33.2L34.3,33.2z"/>
	<path class="st0" d="M58.2,33.2c-2.2,0-4.2-0.5-5.9-1.5c-1.8-1-3.1-2.4-4.1-4.2c-1-1.8-1.5-3.8-1.6-6V2.2c0-0.6,0.2-1.2,0.6-1.6
		S48.2,0,48.8,0s1.2,0.2,1.6,0.6c0.4,0.4,0.6,0.9,0.6,1.6v11.4c1-1.2,2.2-2.1,3.6-2.8c1.4-0.7,2.9-1,4.6-1c2,0,3.9,0.5,5.5,1.5
		s2.9,2.4,3.9,4.2s1.4,3.8,1.4,6s-0.5,4.2-1.5,6c-1,1.8-2.4,3.2-4.2,4.2S60.5,33.1,58.2,33.2L58.2,33.2z M58.2,29.4
		c1.4,0,2.7-0.3,3.8-1c1.1-0.7,2-1.6,2.7-2.9c0.7-1.2,1-2.6,1-4.1s-0.3-2.9-1-4c-0.7-1.2-1.6-2.1-2.7-2.8c-1.1-0.7-2.4-1-3.8-1
		s-2.7,0.4-3.8,1s-2,1.6-2.7,2.8s-1,2.5-1,4s0.3,2.8,1,4s1.5,2.2,2.7,2.9S56.8,29.3,58.2,29.4z"/>
	<path class="st0" d="M83,33.2c-1.9,0-3.7-0.4-5.2-1.2c-1.5-0.8-2.8-2-3.6-3.6s-1.3-3.6-1.3-5.9V12c0-0.6,0.2-1.1,0.6-1.5
		s0.9-0.6,1.5-0.6s1.1,0.2,1.5,0.6s0.6,0.9,0.6,1.5v10.4c0,1.6,0.3,2.9,0.9,3.9s1.4,1.8,2.4,2.3c1,0.5,2.2,0.7,3.4,0.7
		s2.3-0.2,3.2-0.7s1.7-1.1,2.3-1.9c0.6-0.8,0.8-1.7,0.8-2.8h2.7c0,1.8-0.4,3.3-1.3,4.7s-2,2.5-3.5,3.3C86.6,32.8,84.9,33.2,83,33.2
		L83,33.2z M92.3,33c-0.6,0-1.1-0.2-1.5-0.6s-0.6-0.9-0.6-1.5V12c0-0.6,0.2-1.2,0.6-1.6c0.4-0.4,0.9-0.6,1.5-0.6s1.2,0.2,1.6,0.6
		s0.6,0.9,0.6,1.6v18.8c0,0.6-0.2,1.1-0.6,1.5S93,33,92.3,33z"/>
	<path class="st0" d="M107.4,33.2c-2,0-3.8-0.3-5.5-0.9c-1.7-0.6-3-1.4-3.9-2.3c-0.4-0.5-0.6-1-0.5-1.5c0.1-0.6,0.3-1,0.8-1.4
		c0.6-0.5,1.1-0.6,1.7-0.6c0.6,0.1,1,0.3,1.4,0.7c0.5,0.5,1.2,1,2.3,1.5c1.1,0.5,2.2,0.7,3.5,0.7c1.6,0,2.9-0.3,3.7-0.8
		c0.9-0.5,1.3-1.2,1.3-2.1c0-0.8-0.4-1.6-1.2-2.2c-0.8-0.6-2.3-1.1-4.5-1.5c-2.8-0.6-4.9-1.4-6.2-2.5c-1.3-1.1-1.9-2.5-1.9-4.1
		c0-1.4,0.4-2.6,1.3-3.6c0.8-0.9,1.9-1.6,3.2-2.1s2.7-0.7,4.1-0.7c1.9,0,3.5,0.3,4.9,0.9c1.4,0.6,2.6,1.4,3.4,2.4
		c0.4,0.4,0.6,0.9,0.6,1.4c0,0.5-0.3,0.9-0.7,1.2c-0.4,0.3-1,0.4-1.6,0.3c-0.6-0.1-1.1-0.4-1.6-0.8c-0.7-0.7-1.5-1.1-2.3-1.4
		s-1.8-0.4-2.8-0.4c-1.2,0-2.3,0.2-3.2,0.6s-1.3,1-1.3,1.9c0,0.5,0.1,1,0.4,1.4s0.8,0.8,1.6,1.1c0.8,0.3,1.9,0.6,3.5,1
		c2.1,0.4,3.8,1,5,1.6c1.2,0.6,2.1,1.4,2.6,2.3c0.5,0.9,0.8,1.9,0.8,3c0,1.3-0.3,2.5-1,3.5c-0.7,1-1.7,1.9-3,2.5
		C111.1,32.9,109.4,33.2,107.4,33.2L107.4,33.2z"/>
	<path class="st0" d="M154.9,14.4c-0.6,0-1.1-0.2-1.4-0.5s-0.6-0.8-0.6-1.3c0-0.6,0.2-1,0.6-1.4c0.4-0.3,0.8-0.5,1.4-0.5h10.4
		c0.6,0,1.1,0.2,1.4,0.5s0.6,0.8,0.6,1.4c0,0.5-0.2,0.9-0.6,1.3c-0.4,0.3-0.8,0.5-1.4,0.5C165.3,14.4,154.9,14.4,154.9,14.4z
		 M158.8,33c-0.5,0-1-0.2-1.4-0.6s-0.6-0.9-0.6-1.6V10c0-2,0.4-3.8,1.2-5.3s1.9-2.7,3.4-3.5s3.1-1.2,5-1.2c0.6,0,1.1,0.2,1.5,0.6
		c0.4,0.4,0.6,0.8,0.6,1.4s-0.2,1-0.6,1.4s-0.9,0.6-1.5,0.6c-1,0-2,0.2-2.8,0.7s-1.4,1.1-1.8,2s-0.6,1.8-0.6,3v21.2
		c0,0.6-0.2,1.2-0.6,1.6S159.5,33,158.8,33L158.8,33z"/>
	<path class="st0" d="M167.8,14.4c-0.6,0-1.1-0.2-1.4-0.5s-0.6-0.8-0.6-1.3c0-0.6,0.2-1,0.6-1.4c0.4-0.3,0.8-0.5,1.4-0.5h9.8
		c0.6,0,1.1,0.2,1.4,0.5s0.6,0.8,0.6,1.4c0,0.5-0.2,0.9-0.6,1.3c-0.4,0.3-0.8,0.5-1.4,0.5C177.5,14.4,167.8,14.4,167.8,14.4z
		 M177.1,33c-1.4,0-2.7-0.4-3.8-1.1s-2-1.7-2.7-2.9c-0.6-1.2-1-2.6-1-4.2V4.7c0-0.6,0.2-1.1,0.6-1.5s0.9-0.6,1.5-0.6
		s1.1,0.2,1.5,0.6s0.6,0.9,0.6,1.5v20.1c0,1.1,0.3,2.1,0.9,2.8s1.4,1.1,2.3,1.1h1.4c0.5,0,0.9,0.2,1.3,0.6c0.4,0.4,0.5,0.9,0.5,1.5
		s-0.2,1.1-0.7,1.5c-0.5,0.4-1.1,0.6-1.8,0.6H177.1L177.1,33z"/>
	<path class="st0" d="M146.9,12.2c-0.1,0-0.1,0-0.2,0c-1.7,0-3.3,0.6-4.6,1.6c-1.9-2.6-4.9-4.3-8.3-4.3c-5.6,0-10.2,4.6-10.2,10.2
		c0,3.4,1.7,6.4,4.2,8.3c-0.7,1.1-1,2.4-1,3.7c0,0.5,0.1,1,0.2,1.5c-4.9-2.5-8.2-7.6-8.2-13.5c0-8.3,6.8-15.1,15.1-15.1
		C139.4,4.7,144.3,7.7,146.9,12.2L146.9,12.2z"/>
	<circle class="st1" cx="135.9" cy="32.1" r="3.1"/>
	<path class="st2" d="M146.4,27.7c0,0.1,0,0.3,0,0.4c-0.2,1.2-1,2.1-2.1,2.5c-0.3,0.1-0.6,0.1-1,0.1c-0.9,0-1.7-0.4-2.2-1
		c-0.5-0.5-0.8-1.2-0.8-1.9c0-0.1,0-0.1,0-0.2c0-1.7,1.4-3.1,3.1-3.1c1.4,0,2.5,0.9,2.9,2.1C146.4,27,146.4,27.3,146.4,27.7
		L146.4,27.7z"/>
	<circle class="st3" cx="146.8" cy="19.9" r="3.1"/>
</g>
</svg>
