<?xml version="1.0" encoding="utf-8"?>
<!-- Generator: Adobe Illustrator 27.8.1, SVG Export Plug-In . SVG Version: 6.00 Build 0)  -->
<svg version="1.1" id="Layer_2" xmlns="http://www.w3.org/2000/svg" xmlns:xlink="http://www.w3.org/1999/xlink" x="0px" y="0px"
	 viewBox="0 0 39.5 38.3" style="enable-background:new 0 0 39.5 38.3;" xml:space="preserve">
<style type="text/css">
	.st0{fill:#3C3C3C;}
	.st1{fill:#7EB842;}
	.st2{fill:#2090CF;}
	.st3{fill:#DF1B4E;}
</style>
<g id="Layer_1-2">
	<path class="st0" d="M31.8,12.2c-0.1,0-0.1,0-0.2,0c-1.7,0-3.3,0.6-4.6,1.6c-1.9-2.6-4.9-4.3-8.3-4.3c-5.6,0-10.2,4.6-10.2,10.2
		c0,3.4,1.7,6.4,4.2,8.3c-0.7,1.1-1,2.4-1,3.7c0,0.5,0.1,1,0.2,1.5C7,30.7,3.6,25.6,3.6,19.8c0-8.3,6.8-15.1,15.1-15.1
		C24.3,4.7,29.2,7.7,31.8,12.2L31.8,12.2z"/>
	<circle class="st1" cx="20.8" cy="32.1" r="3.1"/>
	<path class="st2" d="M31.3,27.7c0,0.1,0,0.3,0,0.4c-0.2,1.2-1,2.1-2.1,2.5c-0.3,0.1-0.6,0.1-1,0.1c-0.9,0-1.7-0.4-2.2-1
		c-0.5-0.5-0.8-1.2-0.8-1.9c0-0.1,0-0.1,0-0.2c0-1.7,1.4-3.1,3.1-3.1c1.4,0,2.5,0.9,2.9,2.1C31.2,27,31.3,27.3,31.3,27.7L31.3,27.7z
		"/>
	<circle class="st3" cx="31.7" cy="19.9" r="3.1"/>
</g>
</svg>
