<?xml version="1.0" encoding="UTF-8"?><svg id="Layer_2" xmlns="http://www.w3.org/2000/svg" viewBox="0 0 180.38 35.21"><defs><style>.cls-1{fill:#3c3c3c;}.cls-1,.cls-2,.cls-3,.cls-4{stroke-width:0px;}.cls-2{fill:#2090cf;}.cls-3{fill:#df1b4e;}.cls-4{fill:#7eb842;}</style></defs><g id="Layer_1-2"><path class="cls-1" d="m11.17,32.94c-.87,0-1.55-.46-2.03-1.39L.19,12.67c-.23-.48-.25-.95-.06-1.41.18-.46.54-.82,1.08-1.08.48-.25.96-.3,1.46-.13.49.17.87.49,1.12.97l8.36,18.03h-2.03l8.28-18.03c.25-.48.64-.8,1.16-.97.52-.17,1.05-.13,1.58.13.51.23.84.58,1.01,1.06s.14.96-.08,1.44l-8.95,18.88c-.42.93-1.07,1.39-1.94,1.39Z"/><path class="cls-1" d="m34.31,33.15c-2.34,0-4.41-.5-6.23-1.5s-3.24-2.38-4.27-4.14c-1.03-1.76-1.54-3.78-1.54-6.06s.49-4.34,1.46-6.1c.97-1.76,2.32-3.14,4.03-4.14,1.72-1,3.69-1.5,5.91-1.5s4.08.49,5.66,1.46c1.58.97,2.78,2.31,3.61,4.01.83,1.7,1.25,3.67,1.25,5.89,0,.54-.18.98-.55,1.33-.37.35-.83.53-1.39.53h-17.02v-3.38h16.89l-1.73,1.18c-.03-1.41-.31-2.67-.84-3.78-.54-1.11-1.3-1.99-2.28-2.64-.99-.65-2.18-.97-3.59-.97-1.6,0-2.98.35-4.12,1.06-1.14.7-2.01,1.67-2.6,2.89-.59,1.22-.89,2.61-.89,4.16s.35,2.93,1.06,4.14c.7,1.21,1.67,2.17,2.91,2.87,1.24.7,2.66,1.06,4.27,1.06.87,0,1.77-.16,2.68-.49.91-.32,1.65-.7,2.22-1.12.42-.31.88-.47,1.37-.49.49-.01.92.13,1.29.44.48.42.73.89.76,1.39.03.51-.2.94-.68,1.31-.96.76-2.15,1.38-3.57,1.86-1.42.48-2.78.72-4.08.72Z"/><path class="cls-1" d="m58.25,33.15c-2.2,0-4.17-.51-5.91-1.54-1.75-1.03-3.12-2.43-4.14-4.2-1.01-1.77-1.53-3.77-1.56-6V2.15c0-.65.2-1.17.61-1.56.41-.39.92-.59,1.54-.59s1.17.2,1.56.59c.39.39.59.92.59,1.56v11.4c.99-1.18,2.17-2.12,3.57-2.81,1.39-.69,2.92-1.04,4.58-1.04,2.05,0,3.9.51,5.53,1.54,1.63,1.03,2.92,2.42,3.86,4.18s1.42,3.75,1.42,5.98-.51,4.22-1.54,6c-1.03,1.77-2.41,3.17-4.16,4.2-1.75,1.03-3.73,1.54-5.95,1.54Zm0-3.8c1.44,0,2.72-.34,3.84-1.04,1.13-.69,2.02-1.64,2.68-2.85.66-1.21.99-2.56.99-4.05s-.33-2.87-.99-4.05c-.66-1.18-1.56-2.12-2.68-2.81-1.13-.69-2.41-1.04-3.84-1.04s-2.68.35-3.82,1.04c-1.14.69-2.03,1.63-2.68,2.81-.65,1.18-.97,2.53-.97,4.05s.32,2.84.97,4.05c.65,1.21,1.54,2.16,2.68,2.85,1.14.69,2.41,1.04,3.82,1.04Z"/><path class="cls-1" d="m83,33.19c-1.94,0-3.68-.42-5.22-1.25-1.53-.83-2.75-2.05-3.63-3.65s-1.33-3.58-1.33-5.91v-10.39c0-.62.2-1.13.61-1.54.41-.41.92-.61,1.54-.61s1.13.2,1.54.61c.41.41.61.92.61,1.54v10.39c0,1.58.3,2.88.89,3.91s1.39,1.79,2.41,2.28c1.01.49,2.15.74,3.42.74s2.29-.24,3.23-.72c.94-.48,1.7-1.13,2.26-1.94.56-.82.84-1.73.84-2.75h2.66c0,1.75-.43,3.32-1.29,4.73-.86,1.41-2.03,2.52-3.51,3.34-1.48.82-3.16,1.22-5.05,1.22Zm9.33-.21c-.62,0-1.13-.2-1.54-.61-.41-.41-.61-.92-.61-1.54V11.99c0-.65.2-1.17.61-1.56.41-.39.92-.59,1.54-.59s1.17.2,1.56.59c.39.39.59.92.59,1.56v18.84c0,.62-.2,1.13-.59,1.54-.39.41-.92.61-1.56.61Z"/><path class="cls-1" d="m107.45,33.15c-1.97,0-3.79-.3-5.47-.91-1.68-.6-2.98-1.37-3.91-2.3-.42-.45-.6-.96-.53-1.54.07-.58.34-1.05.82-1.42.56-.45,1.12-.64,1.67-.57.55.07,1.02.32,1.41.74.48.54,1.25,1.04,2.3,1.5,1.06.46,2.23.7,3.53.7,1.63,0,2.88-.27,3.74-.8.86-.53,1.3-1.22,1.33-2.07.03-.84-.37-1.58-1.2-2.2-.83-.62-2.34-1.13-4.54-1.52-2.84-.56-4.91-1.41-6.19-2.53-1.28-1.13-1.92-2.51-1.92-4.14,0-1.44.42-2.62,1.27-3.57.84-.94,1.93-1.65,3.25-2.11,1.32-.46,2.7-.7,4.14-.7,1.86,0,3.51.3,4.94.89,1.44.59,2.58,1.41,3.42,2.45.39.45.58.92.55,1.42-.03.49-.27.91-.72,1.25-.45.31-.99.41-1.6.3-.62-.11-1.14-.37-1.56-.76-.7-.68-1.46-1.14-2.28-1.39-.82-.25-1.76-.38-2.83-.38-1.24,0-2.29.21-3.15.63-.86.42-1.29,1.04-1.29,1.86,0,.51.13.96.4,1.37s.8.77,1.58,1.1c.79.32,1.94.64,3.46.95,2.11.42,3.78.96,5,1.6,1.22.65,2.1,1.4,2.64,2.26.53.86.8,1.85.8,2.98,0,1.29-.35,2.46-1.03,3.5-.69,1.04-1.7,1.87-3.04,2.49-1.34.62-3.01.93-5,.93Z"/><path class="cls-1" d="m154.88,14.36c-.59,0-1.07-.17-1.44-.51-.37-.34-.55-.76-.55-1.27,0-.56.18-1.01.55-1.35.37-.34.84-.51,1.44-.51h10.43c.59,0,1.07.17,1.44.51.37.34.55.79.55,1.35,0,.51-.18.93-.55,1.27-.37.34-.84.51-1.44.51h-10.43Zm3.89,18.62c-.54,0-1.01-.2-1.44-.59s-.63-.92-.63-1.56V10.01c0-2.03.4-3.79,1.2-5.28.8-1.49,1.92-2.65,3.36-3.48,1.44-.83,3.1-1.25,4.98-1.25.62,0,1.13.18,1.54.55.41.37.61.83.61,1.39s-.2.99-.61,1.37c-.41.38-.92.57-1.54.57-1.04,0-1.96.24-2.75.72-.79.48-1.4,1.14-1.84,1.99s-.65,1.84-.65,3v21.24c0,.65-.2,1.17-.59,1.56-.39.39-.94.59-1.65.59Z"/><path class="cls-1" d="m167.76,14.36c-.59,0-1.07-.17-1.44-.51-.37-.34-.55-.76-.55-1.27,0-.56.18-1.01.55-1.35.37-.34.84-.51,1.44-.51h9.76c.59,0,1.07.17,1.44.51.37.34.55.79.55,1.35,0,.51-.18.93-.55,1.27-.37.34-.84.51-1.44.51h-9.76Zm9.38,18.62c-1.41,0-2.68-.36-3.8-1.08s-2.01-1.7-2.66-2.93c-.65-1.24-.97-2.63-.97-4.18V4.65c0-.62.2-1.13.59-1.52.39-.39.9-.59,1.52-.59s1.13.2,1.52.59c.39.39.59.9.59,1.52v20.14c0,1.13.31,2.07.93,2.83.62.76,1.38,1.14,2.28,1.14h1.44c.51,0,.94.2,1.29.59.35.39.53.9.53,1.52s-.23,1.13-.7,1.52c-.46.39-1.06.59-1.79.59h-.76Z"/><path class="cls-1" d="m146.92,12.24c-.07-.01-.13-.01-.2-.01-1.73,0-3.31.6-4.56,1.62-1.85-2.6-4.88-4.29-8.31-4.29-5.64,0-10.21,4.57-10.21,10.2,0,3.41,1.67,6.43,4.24,8.28-.65,1.08-1.02,2.35-1.02,3.7,0,.5.05,1,.15,1.47-4.9-2.49-8.25-7.58-8.25-13.45,0-8.33,6.76-15.08,15.09-15.08,5.59,0,10.47,3.04,13.07,7.56Z"/><circle class="cls-4" cx="135.9" cy="32.11" r="3.09"/><path class="cls-2" d="m146.42,27.71c0,.15-.01.3-.04.44-.16,1.18-.99,2.14-2.1,2.5-.3.1-.63.15-.96.15-.88,0-1.67-.36-2.24-.95-.48-.5-.79-1.17-.84-1.92-.01-.07-.01-.15-.01-.22,0-1.71,1.38-3.1,3.09-3.1,1.36,0,2.51.87,2.93,2.09.11.31.17.65.17,1.01Z"/><circle class="cls-3" cx="146.81" cy="19.85" r="3.09"/></g></svg>